inDegrees=yes
name=ik_S54_A03_T01
DataType=double
version=3
OpenSimVersion=4.3-2021-08-27-4bc7ad9
endheader
time	pelvis_tilt	pelvis_list	pelvis_rotation	pelvis_tx	pelvis_ty	pelvis_tz	hip_flexion_r	hip_adduction_r	hip_rotation_r	knee_angle_r	knee_angle_r_beta	ankle_angle_r	subtalar_angle_r	mtp_angle_r	hip_flexion_l	hip_adduction_l	hip_rotation_l	knee_angle_l	knee_angle_l_beta	ankle_angle_l	subtalar_angle_l	mtp_angle_l	lumbar_extension	lumbar_bending	lumbar_rotation	arm_flex_r	arm_add_r	arm_rot_r	elbow_flex_r	pro_sup_r	wrist_flex_r	wrist_dev_r	arm_flex_l	arm_add_l	arm_rot_l	elbow_flex_l	pro_sup_l	wrist_flex_l	wrist_dev_l
26.35999999999953	3.802747177598072	-2.009450085578964	-75.32996028922247	0	0.9399999999999999	0	19.0365409277839	-5.760370134228581	0.8282317510017906	1.510550644210157	0.02636408225958866	0	0	0	-11.55436074403985	6.746280297781373	-3.850702878782817	15.02347964485952	0.2622091849091471	0	0	0	0	0	0	41.81748156957767	-41.81748156957763	4.952208958696766	84.33322853121294	85.04779131377715	0	0	41.81748156957767	-41.81748156957763	4.952208958696766	84.33322853121294	85.047791313768	0	0
26.37999999999953	2.772082327327429	-2.915401973490326	-74.62837840937769	0	0.9399999999999999	0	16.03309421173617	-4.177806041634089	1.843952866471062	1.908787572293462	0.0333146278576702	0	0	0	-12.5253593699061	5.196194120442736	-5.039661171262384	17.117192565669	0.2987513689688198	0	0	0	0	0	0	41.82614160842338	-41.82614160842334	4.952434824252167	84.33637985581002	85.04756544823073	0	0	41.82614160842338	-41.82614160842334	4.952434824252167	84.33637985581002	85.04756544822176	0	0
26.39999999999953	1.461915648081229	-3.826173868282253	-74.57388431292645	0	0.9399999999999999	0	14.42411749990723	-2.056360035883856	1.556961348319855	2.352431053629596	0.04105766731199575	0	0	0	-13.01634743188794	3.428481394245223	-7.277034492408324	19.7755227097873	0.3451479825886994	0	0	0	0	0	0	41.83985374906754	-41.83985374906751	4.952789736038196	84.34133165452614	85.04721053645891	0	0	41.83985374906754	-41.83985374906751	4.952789736038196	84.34133165452614	85.04721053644997	0	0
26.41999999999953	0.2503338782097924	-4.481292184651442	-74.9002315230792	0	0.9399999999999999	0	14.1255314332184	-0.5665259672293042	1.475439973959148	3.852958579176151	0.06724681314958646	0	0	0	-11.29817902282577	1.16050398199757	-8.860550895980564	21.99688376033107	0.3839180467962485	0	0	0	0	0	0	41.87094939392247	-41.87094939392244	4.953579368379941	84.35234872374765	85.0464209041486	0	0	41.87094939392247	-41.87094939392244	4.953579368379941	84.35234872374765	85.04642090413977	0	0
26.43999999999953	-0.1830969443942823	-4.654113914456665	-75.00500566500715	0	0.9399999999999999	0	13.1911262044036	0.3781302952307711	1.216924701163004	4.619067763702471	0.08061794084933954	0	0	0	-11.46409623757759	0.5210945607667967	-9.32564032076035	25.7426303921042	0.4492936584661771	0	0	0	0	0	0	41.87235753598927	-41.87235753598924	4.953621308053028	84.35293388578458	85.04637896447717	0	0	41.87235753598927	-41.87235753598924	4.953621308053028	84.35293388578458	85.04637896446833	0	0
26.45999999999952	-0.7887850795334233	-4.79555553109526	-74.96670203449314	0	0.9399999999999999	0	12.30409961243293	1.36124677782423	0.4429088821838532	5.303362847526523	0.09256114311727984	0	0	0	-9.1165842916872	-1.179134674708675	-3.379486747765066	30.18729475955614	0.5268676858242847	0	0	0	0	0	0	41.88290364528533	-41.8829036452853	4.953896348088087	84.35677130160649	85.04610392445312	0	0	41.88290364528533	-41.8829036452853	4.953896348088087	84.35677130160649	85.04610392444431	0	0
26.47999999999952	-1.189156216718909	-4.838421420026285	-74.64972720455623	0	0.9399999999999999	0	11.44150975236418	2.116256353513293	-0.5955486459500418	5.550864249400608	0.09688085748328429	0	0	0	-7.725475441368997	-2.726275014545791	-1.436275308356603	36.17024971936254	0.6312899488714313	0	0	0	0	0	0	41.8836601134008	-41.88366011340077	4.953918860351817	84.35708540313985	85.04608141219035	0	0	41.8836601134008	-41.88366011340077	4.953918860351817	84.35708540313985	85.04608141218155	0	0
26.49999999999952	-1.612904633880532	-4.904291786727711	-74.43854933403567	0	0.9399999999999999	0	10.47833536817762	3.004545995232097	-1.345935858500389	5.596621529333768	0.09767947267487466	0	0	0	-6.668444704498288	-3.569537214642079	-3.8757727937805	39.52923662168016	0.689915329848239	0	0	0	0	0	0	41.89729219802408	-41.89729219802405	4.954266314512017	84.36193313871857	85.04573395804397	0	0	41.89729219802408	-41.89729219802405	4.954266314512017	84.36193313871857	85.04573395803529	0	0
26.51999999999952	-2.062345162183099	-5.063146108869592	-74.43955183325581	0	0.9399999999999999	0	9.451659397415689	3.852220494691851	-1.535424115860565	4.657889873659258	0.08129551449065675	0	0	0	-5.732131060840441	-4.068632040778748	-6.292592572887727	41.9201842799911	0.7316452387286132	0	0	0	0	0	0	41.90379655167536	-41.90379655167533	4.954436761612758	84.36431125302397	85.04556351095007	0	0	41.90379655167536	-41.90379655167533	4.954436761612758	84.36431125302397	85.04556351094141	0	0
26.53999999999952	-2.448467722159629	-5.114190086092647	-74.48801746377977	0	0.9399999999999999	0	8.614281402942513	4.658815150747137	-1.56329097830528	4.722116578465136	0.08241648195722578	0	0	0	-4.772008547690545	-4.325989493578043	-6.669305469590127	43.00314189739971	0.7505464148119464	0	0	0	0	0	0	41.90496205123905	-41.90496205123901	4.954471199293589	84.36479174270565	85.04552907327069	0	0	41.90496205123905	-41.90496205123901	4.954471199293589	84.36479174270565	85.04552907326203	0	0
26.55999999999952	-2.748093258409968	-4.965986394451011	-74.61744389146311	0	0.9399999999999999	0	8.001592080043268	5.343923254416469	-1.614498135657891	3.985339197623917	0.06955729080732632	0	0	0	-3.615850186967418	-4.602092094260873	-7.074966543566295	43.91515997812446	0.7664641331583127	0	0	0	0	0	0	41.90607089833848	-41.90607089833846	4.954503753311539	84.36524595028307	85.04549651925404	0	0	41.90607089833848	-41.90607089833846	4.954503753311539	84.36524595028307	85.04549651924539	0	0
26.57999999999952	-2.875586808962119	-4.76543330767224	-74.833140640439	0	0.9399999999999999	0	7.321669092563712	5.839081144128741	-2.074524087210972	4.642902337474885	0.08103393263747764	0	0	0	-2.376956869566178	-4.628655172439947	-7.681345654207323	44.63784028182431	0.7790772838971878	0	0	0	0	0	0	41.90693770514437	-41.90693770514434	4.954529251195672	84.36560170774558	85.04547102137096	0	0	41.90693770514437	-41.90693770514434	4.954529251195672	84.36560170774558	85.0454710213623	0	0
